name Walk1.mot
datacolumns 19
datarows 10
range 2.71000000 2.75500000
endheader

                time	   L_ground_force_vx	   L_ground_force_vy	   L_ground_force_vz	   L_ground_force_px	   L_ground_force_py	   L_ground_force_pz	   R_ground_force_vx	   R_ground_force_vy	   R_ground_force_vz	   R_ground_force_px	   R_ground_force_py	   R_ground_force_pz	   L_ground_torque_x	   L_ground_torque_y	   L_ground_torque_z	   R_ground_torque_x	   R_ground_torque_y	   R_ground_torque_z	
          2.71000000	         -0.00000000	         -0.00000000	         -0.00000000	          0.00000000	          0.00000000	          0.00000000	          2.21359574	         26.08174105	          2.30395255	          0.29132119	          0.00000000	          0.07977410	          0.00000000	         -0.00000000	          0.00000000	          0.00000000	         -0.67775228	          0.00000000	
          2.71500000	         -0.00000000	         -0.00000000	         -0.00000000	          0.00000000	          0.00000000	          0.00000000	          0.81167406	         15.52945247	          1.28772298	          0.23478612	          0.00000000	          0.06369903	          0.00000000	         -0.00000000	          0.00000000	          0.00000000	         -0.37935082	          0.00000000	
          2.72000000	         -0.00000000	         -0.00000000	         -0.00000000	          0.00000000	          0.00000000	          0.00000000	         -0.15158577	          7.53469274	          0.53419123	          0.17997674	          0.00000000	          0.04835600	          0.00000000	         -0.00000000	          0.00000000	          0.00000000	         -0.15799405	          0.00000000	
          2.72500000	         -0.00000000	         -0.00000000	         -0.00000000	          0.00000000	          0.00000000	          0.00000000	         -0.75731704	          1.81190511	          0.00871786	          0.13059457	          0.00000000	          0.03469244	          0.00000000	         -0.00000000	          0.00000000	          0.00000000	         -0.00354682	          0.00000000	
          2.73000000	          0.00000000	         -0.00000000	         -0.00000000	          0.00000000	          0.00000000	          0.00000000	         -1.08586614	         -2.00130752	         -0.32894752	          0.08859828	          0.00000000	          0.02318651	          0.00000000	         -0.00000000	          0.00000000	          0.00000000	          0.09577770	          0.00000000	
          2.73500000	          0.00000000	          0.00000000	         -0.00000000	          0.00000000	          0.00000000	          0.00000000	         -1.21067944	         -4.28836769	         -0.51947001	          0.05465983	          0.00000000	          0.01397421	          0.00000000	         -0.00000000	          0.00000000	          0.00000000	          0.15189774	          0.00000000	
          2.74000000	          0.00000000	          0.00000000	          0.00000000	          0.00000000	          0.00000000	          0.00000000	         -1.19496968	         -5.41585703	         -0.60056460	          0.02857282	          0.00000000	          0.00696135	          0.00000000	         -0.00000000	          0.00000000	          0.00000000	          0.17587316	          0.00000000	
          2.74500000	          0.00000000	          0.00000000	          0.00000000	          0.00000000	          0.00000000	          0.00000000	         -1.09038767	         -5.71056530	         -0.60507159	          0.00958396	          0.00000000	          0.00191358	          0.00000000	         -0.00000000	          0.00000000	          0.00000000	          0.17733869	          0.00000000	
          2.75000000	          0.00000000	          0.00000000	          0.00000000	          0.00000000	          0.00000000	          0.00000000	         -0.93708477	         -5.44791934	         -0.56010799	         -0.00335120	          0.00000000	         -0.00147480	          0.00000000	         -0.00000000	          0.00000000	          0.00000000	          0.16425316	          0.00000000	
          2.75500000	          0.00000000	          0.00000000	          0.00000000	         -0.00000000	          0.00000000	          0.00000000	         -0.76466251	         -4.84862502	         -0.48697593	         -0.01138123	          0.00000000	         -0.00353107	          0.00000000	         -0.00000000	          0.00000000	          0.00000000	          0.14287122	          0.00000000	
